# This file uses centimeters as units for non-parametric coordinates.

mtllib garden_signs.mtl
g default
v 0.741469 0.133359 0.818138
v 0.736524 0.096852 0.825760
v 0.742405 0.132455 0.815623
v 0.737461 0.095948 0.823246
v 0.686277 0.135469 0.793647
v 0.681332 0.098962 0.801270
v 0.685341 0.136373 0.796162
v 0.680396 0.099866 0.803784
v 0.705987 0.098412 0.813535
v 0.711108 0.098137 0.815540
v 0.706748 0.097677 0.811490
v 0.711869 0.097402 0.813495
v 0.700178 0.049956 0.821725
v 0.705300 0.049681 0.823730
v 0.700940 0.049221 0.819680
v 0.706061 0.048946 0.821685
vt 0.305384 0.189667
vt 0.305384 0.000000
vt 0.609906 0.000000
vt 0.609906 0.189667
vt 0.610768 0.379333
vt 0.610768 0.189667
vt 0.915290 0.189667
vt 0.915290 0.379333
vt 0.709905 0.819923
vt 0.682156 0.819923
vt 0.682156 0.570558
vt 0.709905 0.570558
vt 0.876478 0.819923
vt 0.848729 0.819923
vt 0.848729 0.570558
vt 0.876478 0.570558
vt 0.670281 0.802621
vt 0.642496 0.802621
vt 0.642496 0.782202
vt 0.670281 0.782202
vt 0.304522 0.884213
vt 0.000000 0.884213
vt 0.000000 0.859103
vt 0.304522 0.859103
vt 0.304522 0.783776
vt 0.000000 0.783776
vt 0.138369 0.781431
vt 0.166153 0.781431
vt 0.000000 0.758667
vt 0.138369 0.761012
vt 0.304522 0.758667
vt 0.166153 0.761012
vt 0.624421 0.761785
vt 0.610768 0.572364
vt 0.635844 0.570557
vt 0.649497 0.759978
vt 0.737680 0.568753
vt 0.751334 0.379331
vt 0.776410 0.381139
vt 0.762757 0.570560
vt 0.952408 0.751355
vt 0.932016 0.749885
vt 0.932016 0.500520
vt 0.952408 0.501990
vt 0.936544 0.500196
vt 0.916151 0.501666
vt 0.916151 0.252302
vt 0.936544 0.250832
vn 0.930009 -0.049938 0.364128
vn 0.930009 -0.049938 0.364128
vn 0.930009 -0.049938 0.364128
vn 0.930009 -0.049938 0.364128
vn 0.343229 -0.236301 -0.909041
vn 0.343229 -0.236301 -0.909041
vn 0.343229 -0.236301 -0.909041
vn 0.343229 -0.236301 -0.909041
vn -0.930009 0.049938 -0.364128
vn -0.930009 0.049938 -0.364128
vn -0.930009 0.049938 -0.364128
vn -0.930009 0.049938 -0.364128
vn -0.343229 0.236301 0.909041
vn -0.343229 0.236301 0.909041
vn -0.343229 0.236301 0.909041
vn -0.343229 0.236301 0.909041
vn -0.160560 -0.946392 0.280289
vn -0.160560 -0.946392 0.280289
vn -0.160560 -0.946392 0.280289
vn -0.160560 -0.946392 0.280289
vn 0.160559 0.946393 -0.280288
vn 0.160559 0.946393 -0.280288
vn 0.160559 0.946393 -0.280288
vn 0.160559 0.946393 -0.280288
vn -0.160568 -0.946384 0.280311
vn -0.160568 -0.946384 0.280311
vn -0.160568 -0.946384 0.280311
vn -0.160568 -0.946384 0.280311
vn -0.160562 -0.946391 0.280293
vn -0.160562 -0.946391 0.280293
vn -0.160562 -0.946391 0.280293
vn -0.160562 -0.946391 0.280293
vn -0.160550 -0.946402 0.280263
vn -0.160550 -0.946402 0.280263
vn -0.160550 -0.946402 0.280263
vn -0.160550 -0.946402 0.280263
vn -0.160561 -0.946391 0.280294
vn -0.160561 -0.946391 0.280294
vn -0.160561 -0.946391 0.280294
vn -0.160561 -0.946391 0.280294
vn -0.348288 0.196662 0.916526
vn -0.348288 0.196662 0.916526
vn -0.348288 0.196662 0.916526
vn -0.348288 0.196662 0.916526
vn -0.930009 0.049938 -0.364128
vn -0.930009 0.049938 -0.364128
vn -0.930009 0.049938 -0.364128
vn -0.930009 0.049938 -0.364128
vn 0.348288 -0.196662 -0.916526
vn 0.348288 -0.196662 -0.916526
vn 0.348288 -0.196662 -0.916526
vn 0.348288 -0.196662 -0.916526
vn 0.930009 -0.049938 0.364128
vn 0.930009 -0.049938 0.364128
vn 0.930009 -0.049938 0.364128
vn 0.930009 -0.049938 0.364128
s off
g pCube4
usemtl lambert16SG
f 1/33/1 2/34/2 4/35/3 3/36/4
f 3/1/5 4/2/6 6/3/7 5/4/8
f 5/37/9 6/38/10 8/39/11 7/40/12
f 7/5/13 8/6/14 2/7/15 1/8/16
f 14/17/17 13/18/18 15/19/19 16/20/20
f 7/21/21 1/22/22 3/23/23 5/24/24
f 2/25/25 8/26/26 9/27/27 10/28/28
f 8/26/29 6/29/30 11/30/31 9/27/32
f 6/29/33 4/31/34 12/32/35 11/30/36
f 4/31/37 2/25/38 10/28/39 12/32/40
f 10/9/41 9/10/42 13/11/43 14/12/44
f 9/41/45 11/42/46 15/43/47 13/44/48
f 11/13/49 12/14/50 16/15/51 15/16/52
f 12/45/53 10/46/54 14/47/55 16/48/56
g default
v 0.956314 0.145131 0.877872
v 0.956092 0.108496 0.886422
v 0.956720 0.144257 0.875210
v 0.956499 0.107621 0.883760
v 0.897003 0.142615 0.866629
v 0.896782 0.105979 0.875180
v 0.896597 0.143490 0.869291
v 0.896375 0.106854 0.877842
v 0.923548 0.107518 0.881492
v 0.928996 0.107668 0.882275
v 0.923878 0.106807 0.879327
v 0.929327 0.106957 0.880110
v 0.923548 0.058915 0.890792
v 0.928996 0.059065 0.891575
v 0.923878 0.058204 0.888627
v 0.929327 0.058353 0.889410
vt 0.000000 0.569000
vt 0.000000 0.379333
vt 0.304522 0.379333
vt 0.304522 0.569000
vt 0.000000 0.758667
vt 0.000000 0.569000
vt 0.304522 0.569000
vt 0.304522 0.758667
vt 0.793191 0.819923
vt 0.765443 0.819923
vt 0.765443 0.570558
vt 0.793191 0.570558
vt 0.908206 0.628698
vt 0.880457 0.628698
vt 0.880457 0.379333
vt 0.908206 0.379333
vt 0.670281 0.782202
vt 0.642496 0.782202
vt 0.642496 0.761784
vt 0.670281 0.761784
vt 0.609906 0.884213
vt 0.305384 0.884213
vt 0.305384 0.859103
vt 0.609906 0.859103
vt 0.609906 0.783776
vt 0.305384 0.783776
vt 0.443752 0.781431
vt 0.471537 0.781431
vt 0.305384 0.758667
vt 0.443752 0.761012
vt 0.609906 0.758667
vt 0.471537 0.761012
vt 0.656149 0.761785
vt 0.642496 0.572364
vt 0.667572 0.570557
vt 0.681226 0.759978
vt 0.642496 0.568753
vt 0.656149 0.379331
vt 0.681226 0.381139
vt 0.667572 0.570560
vt 0.960340 0.500483
vt 0.939948 0.499013
vt 0.939948 0.249649
vt 0.960340 0.251119
vt 1.000000 0.747517
vt 0.979608 0.748987
vt 0.979608 0.499623
vt 1.000000 0.498153
vn 0.989468 0.027204 0.142172
vn 0.989468 0.027204 0.142172
vn 0.989468 0.027204 0.142172
vn 0.989468 0.027204 0.142172
vn 0.144632 -0.225723 -0.963395
vn 0.144632 -0.225723 -0.963395
vn 0.144632 -0.225723 -0.963395
vn 0.144632 -0.225723 -0.963395
vn -0.989468 -0.027204 -0.142172
vn -0.989468 -0.027204 -0.142172
vn -0.989468 -0.027204 -0.142172
vn -0.989468 -0.027204 -0.142172
vn -0.144632 0.225723 0.963395
vn -0.144632 0.225723 0.963395
vn -0.144632 0.225723 0.963395
vn -0.144632 0.225723 0.963395
vn -0.018339 -0.950708 0.309544
vn -0.018339 -0.950708 0.309544
vn -0.018339 -0.950708 0.309544
vn -0.018339 -0.950708 0.309544
vn 0.018339 0.950708 -0.309544
vn 0.018339 0.950708 -0.309544
vn 0.018339 0.950708 -0.309544
vn 0.018339 0.950708 -0.309544
vn -0.018343 -0.950701 0.309568
vn -0.018343 -0.950701 0.309568
vn -0.018343 -0.950701 0.309568
vn -0.018343 -0.950701 0.309568
vn -0.018340 -0.950707 0.309549
vn -0.018340 -0.950707 0.309549
vn -0.018340 -0.950707 0.309549
vn -0.018340 -0.950707 0.309549
vn -0.018335 -0.950717 0.309516
vn -0.018335 -0.950717 0.309516
vn -0.018335 -0.950717 0.309516
vn -0.018335 -0.950717 0.309516
vn -0.018339 -0.950707 0.309549
vn -0.018339 -0.950707 0.309549
vn -0.018339 -0.950707 0.309549
vn -0.018339 -0.950707 0.309549
vn -0.144751 0.185954 0.971838
vn -0.144751 0.185954 0.971838
vn -0.144751 0.185954 0.971838
vn -0.144751 0.185954 0.971838
vn -0.989468 -0.027204 -0.142172
vn -0.989468 -0.027204 -0.142172
vn -0.989468 -0.027204 -0.142172
vn -0.989468 -0.027204 -0.142172
vn 0.144751 -0.185954 -0.971838
vn 0.144751 -0.185954 -0.971838
vn 0.144751 -0.185954 -0.971838
vn 0.144751 -0.185954 -0.971838
vn 0.989468 0.027204 0.142172
vn 0.989468 0.027204 0.142172
vn 0.989468 0.027204 0.142172
vn 0.989468 0.027204 0.142172
s off
g pCube1
usemtl lambert16SG
f 17/81/57 18/82/58 20/83/59 19/84/60
f 19/49/61 20/50/62 22/51/63 21/52/64
f 21/85/65 22/86/66 24/87/67 23/88/68
f 23/53/69 24/54/70 18/55/71 17/56/72
f 30/65/73 29/66/74 31/67/75 32/68/76
f 23/69/77 17/70/78 19/71/79 21/72/80
f 18/73/81 24/74/82 25/75/83 26/76/84
f 24/74/85 22/77/86 27/78/87 25/75/88
f 22/77/89 20/79/90 28/80/91 27/78/92
f 20/79/93 18/73/94 26/76/95 28/80/96
f 26/57/97 25/58/98 29/59/99 30/60/100
f 25/89/101 27/90/102 31/91/103 29/92/104
f 27/61/105 28/62/106 32/63/107 31/64/108
f 28/93/109 26/94/110 30/95/111 32/96/112
g default
v 1.154232 0.137505 0.899108
v 1.154010 0.107429 0.906403
v 1.154638 0.136693 0.896434
v 1.154417 0.106617 0.903729
v 1.094921 0.135052 0.887853
v 1.094700 0.104976 0.895149
v 1.094515 0.135864 0.890527
v 1.094293 0.105788 0.897823
v 1.121465 0.106458 0.901472
v 1.126914 0.106608 0.902255
v 1.121796 0.105798 0.899297
v 1.127245 0.105947 0.900080
v 1.121465 0.066490 0.909119
v 1.126914 0.066640 0.909902
v 1.121796 0.065829 0.906945
v 1.127245 0.065979 0.907728
vt 0.305384 0.379333
vt 0.305384 0.189667
vt 0.609906 0.189667
vt 0.609906 0.379333
vt 0.610768 0.189667
vt 0.610768 0.000000
vt 0.915290 0.000000
vt 0.915290 0.189667
vt 0.737667 0.819923
vt 0.709918 0.819923
vt 0.709918 0.570558
vt 0.737667 0.570558
vt 0.904240 0.878062
vt 0.876491 0.878062
vt 0.876491 0.628698
vt 0.904240 0.628698
vt 0.638552 0.782202
vt 0.610768 0.782202
vt 0.610768 0.761783
vt 0.638552 0.761783
vt 0.304522 0.859103
vt 0.000000 0.859103
vt 0.000000 0.833994
vt 0.304522 0.833994
vt 0.304522 0.833994
vt 0.000000 0.833994
vt 0.138369 0.831649
vt 0.166153 0.831649
vt 0.000000 0.808885
vt 0.138369 0.811230
vt 0.304522 0.808885
vt 0.166153 0.811230
vt 0.822722 0.570560
vt 0.809069 0.381139
vt 0.834145 0.379331
vt 0.847799 0.568753
vt 0.610768 0.568753
vt 0.624421 0.379331
vt 0.649497 0.381139
vt 0.635844 0.570560
vt 0.976204 0.751275
vt 0.955812 0.749805
vt 0.955812 0.500440
vt 0.976204 0.501910
vt 0.984136 0.249365
vt 0.963744 0.250834
vt 0.963744 0.001470
vt 0.984136 0.000000
vn 0.989468 0.027204 0.142172
vn 0.989468 0.027204 0.142172
vn 0.989468 0.027204 0.142172
vn 0.989468 0.027204 0.142172
vn 0.144574 -0.234256 -0.961365
vn 0.144574 -0.234256 -0.961365
vn 0.144574 -0.234256 -0.961365
vn 0.144574 -0.234256 -0.961365
vn -0.989468 -0.027204 -0.142172
vn -0.989468 -0.027204 -0.142172
vn -0.989468 -0.027204 -0.142172
vn -0.989468 -0.027204 -0.142172
vn -0.144574 0.234256 0.961365
vn -0.144574 0.234256 0.961365
vn -0.144574 0.234256 0.961365
vn -0.144574 0.234256 0.961365
vn -0.015120 -0.957385 0.288419
vn -0.015120 -0.957385 0.288419
vn -0.015120 -0.957385 0.288419
vn -0.015120 -0.957385 0.288419
vn 0.015120 0.957385 -0.288418
vn 0.015120 0.957385 -0.288418
vn 0.015120 0.957385 -0.288418
vn 0.015120 0.957385 -0.288418
vn -0.015123 -0.957379 0.288438
vn -0.015123 -0.957379 0.288438
vn -0.015123 -0.957379 0.288438
vn -0.015123 -0.957379 0.288438
vn -0.015121 -0.957384 0.288423
vn -0.015121 -0.957384 0.288423
vn -0.015121 -0.957384 0.288423
vn -0.015121 -0.957384 0.288423
vn -0.015116 -0.957392 0.288396
vn -0.015116 -0.957392 0.288396
vn -0.015116 -0.957392 0.288396
vn -0.015116 -0.957392 0.288396
vn -0.015120 -0.957384 0.288423
vn -0.015120 -0.957384 0.288423
vn -0.015120 -0.957384 0.288423
vn -0.015120 -0.957384 0.288423
vn -0.144751 0.185954 0.971838
vn -0.144751 0.185954 0.971838
vn -0.144751 0.185954 0.971838
vn -0.144751 0.185954 0.971838
vn -0.989468 -0.027204 -0.142172
vn -0.989468 -0.027204 -0.142172
vn -0.989468 -0.027204 -0.142172
vn -0.989468 -0.027204 -0.142172
vn 0.144751 -0.185954 -0.971838
vn 0.144751 -0.185954 -0.971838
vn 0.144751 -0.185954 -0.971838
vn 0.144751 -0.185954 -0.971838
vn 0.989468 0.027204 0.142172
vn 0.989468 0.027204 0.142172
vn 0.989468 0.027204 0.142172
vn 0.989468 0.027204 0.142172
s off
g pCube2
usemtl lambert16SG
f 33/129/113 34/130/114 36/131/115 35/132/116
f 35/97/117 36/98/118 38/99/119 37/100/120
f 37/133/121 38/134/122 40/135/123 39/136/124
f 39/101/125 40/102/126 34/103/127 33/104/128
f 46/113/129 45/114/130 47/115/131 48/116/132
f 39/117/133 33/118/134 35/119/135 37/120/136
f 34/121/137 40/122/138 41/123/139 42/124/140
f 40/122/141 38/125/142 43/126/143 41/123/144
f 38/125/145 36/127/146 44/128/147 43/126/148
f 36/127/149 34/121/150 42/124/151 44/128/152
f 42/105/153 41/106/154 45/107/155 46/108/156
f 41/137/157 43/138/158 47/139/159 45/140/160
f 43/109/161 44/110/162 48/111/163 47/112/164
f 44/141/165 42/142/166 46/143/167 48/144/168
g default
v 1.328644 0.133359 0.926853
v 1.325570 0.096852 0.935404
v 1.328981 0.132455 0.924191
v 1.325907 0.095948 0.932742
v 1.269318 0.135469 0.915611
v 1.266244 0.098962 0.924161
v 1.268981 0.136373 0.918273
v 1.265907 0.099866 0.926823
v 1.293048 0.098412 0.930474
v 1.298492 0.098137 0.931256
v 1.293322 0.097677 0.928309
v 1.298766 0.097402 0.929092
v 1.289263 0.049956 0.939773
v 1.294707 0.049681 0.940556
v 1.289537 0.049221 0.937609
v 1.294981 0.048946 0.938392
vt 0.000000 0.379333
vt 0.000000 0.189667
vt 0.304522 0.189667
vt 0.304522 0.379333
vt 0.305384 0.569000
vt 0.305384 0.379333
vt 0.609906 0.379333
vt 0.609906 0.569000
vt 0.820954 0.819764
vt 0.793205 0.819764
vt 0.793205 0.570400
vt 0.820954 0.570400
vt 0.848716 0.819923
vt 0.820967 0.819923
vt 0.820967 0.570558
vt 0.848716 0.570558
vt 0.638552 0.823039
vt 0.610768 0.823039
vt 0.610768 0.802621
vt 0.638552 0.802621
vt 0.609906 0.859103
vt 0.305384 0.859103
vt 0.305384 0.833994
vt 0.609906 0.833994
vt 0.609906 0.808885
vt 0.305384 0.808885
vt 0.443752 0.806540
vt 0.471537 0.806540
vt 0.305384 0.783776
vt 0.443752 0.786121
vt 0.609906 0.783776
vt 0.471537 0.786121
vt 0.790994 0.570560
vt 0.777341 0.381139
vt 0.802417 0.379331
vt 0.816070 0.568753
vt 0.705952 0.568753
vt 0.719605 0.379331
vt 0.744682 0.381139
vt 0.731029 0.570560
vt 0.960340 0.250835
vt 0.939948 0.249365
vt 0.939948 0.000000
vt 0.960340 0.001470
vt 1.000000 0.997166
vt 0.979608 0.998636
vt 0.979608 0.749271
vt 1.000000 0.747801
vn 0.988581 -0.049938 0.142172
vn 0.988581 -0.049938 0.142172
vn 0.988581 -0.049938 0.142172
vn 0.988581 -0.049938 0.142172
vn 0.126613 -0.236301 -0.963395
vn 0.126613 -0.236301 -0.963395
vn 0.126613 -0.236301 -0.963395
vn 0.126613 -0.236301 -0.963395
vn -0.988581 0.049938 -0.142172
vn -0.988581 0.049938 -0.142172
vn -0.988581 0.049938 -0.142172
vn -0.988581 0.049938 -0.142172
vn -0.126613 0.236302 0.963395
vn -0.126613 0.236302 0.963395
vn -0.126613 0.236302 0.963395
vn -0.126613 0.236302 0.963395
vn -0.092324 -0.946393 0.309544
vn -0.092324 -0.946393 0.309544
vn -0.092324 -0.946393 0.309544
vn -0.092324 -0.946393 0.309544
vn 0.092324 0.946393 -0.309544
vn 0.092324 0.946393 -0.309544
vn 0.092324 0.946393 -0.309544
vn 0.092324 0.946393 -0.309544
vn -0.092327 -0.946384 0.309567
vn -0.092327 -0.946384 0.309567
vn -0.092327 -0.946384 0.309567
vn -0.092327 -0.946384 0.309567
vn -0.092325 -0.946391 0.309549
vn -0.092325 -0.946391 0.309549
vn -0.092325 -0.946391 0.309549
vn -0.092325 -0.946391 0.309549
vn -0.092320 -0.946402 0.309516
vn -0.092320 -0.946402 0.309516
vn -0.092320 -0.946402 0.309516
vn -0.092320 -0.946402 0.309516
vn -0.092324 -0.946391 0.309549
vn -0.092324 -0.946391 0.309549
vn -0.092324 -0.946391 0.309549
vn -0.092324 -0.946391 0.309549
vn -0.129830 0.196662 0.971838
vn -0.129830 0.196662 0.971838
vn -0.129830 0.196662 0.971838
vn -0.129830 0.196662 0.971838
vn -0.988581 0.049938 -0.142172
vn -0.988581 0.049938 -0.142172
vn -0.988581 0.049938 -0.142172
vn -0.988581 0.049938 -0.142172
vn 0.129830 -0.196662 -0.971838
vn 0.129830 -0.196662 -0.971838
vn 0.129830 -0.196662 -0.971838
vn 0.129830 -0.196662 -0.971838
vn 0.988581 -0.049938 0.142172
vn 0.988581 -0.049938 0.142172
vn 0.988581 -0.049938 0.142172
vn 0.988581 -0.049938 0.142172
s off
g pCube3
usemtl lambert16SG
f 49/177/169 50/178/170 52/179/171 51/180/172
f 51/145/173 52/146/174 54/147/175 53/148/176
f 53/181/177 54/182/178 56/183/179 55/184/180
f 55/149/181 56/150/182 50/151/183 49/152/184
f 62/161/185 61/162/186 63/163/187 64/164/188
f 55/165/189 49/166/190 51/167/191 53/168/192
f 50/169/193 56/170/194 57/171/195 58/172/196
f 56/170/197 54/173/198 59/174/199 57/171/200
f 54/173/201 52/175/202 60/176/203 59/174/204
f 52/175/205 50/169/206 58/172/207 60/176/208
f 58/153/209 57/154/210 61/155/211 62/156/212
f 57/185/213 59/186/214 63/187/215 61/188/216
f 59/157/217 60/158/218 64/159/219 63/160/220
f 60/189/221 58/190/222 62/191/223 64/192/224
g default
v 1.518777 0.150318 0.966418
v 1.515784 0.113683 0.974430
v 1.520028 0.149444 0.964033
v 1.517035 0.112808 0.972046
v 1.466360 0.147802 0.936476
v 1.463366 0.111166 0.944488
v 1.465109 0.148676 0.938860
v 1.462115 0.112041 0.946873
v 1.486618 0.112705 0.959172
v 1.491515 0.112855 0.961686
v 1.487635 0.111994 0.957232
v 1.492532 0.112144 0.959747
v 1.483590 0.064102 0.967965
v 1.488486 0.064252 0.970479
v 1.484607 0.063391 0.966026
v 1.489504 0.063540 0.968540
vt 0.000000 0.189667
vt 0.000000 0.000000
vt 0.304522 0.000000
vt 0.304522 0.189667
vt 0.305384 0.758667
vt 0.305384 0.569000
vt 0.609906 0.569000
vt 0.609906 0.758667
vt 0.765429 0.819923
vt 0.737680 0.819923
vt 0.737680 0.570558
vt 0.765429 0.570558
vt 0.932002 0.878062
vt 0.904253 0.878062
vt 0.904253 0.628698
vt 0.932002 0.628698
vt 0.638552 0.802621
vt 0.610768 0.802621
vt 0.610768 0.782202
vt 0.638552 0.782202
vt 0.609906 0.833994
vt 0.305384 0.833994
vt 0.305384 0.808885
vt 0.609906 0.808885
vt 0.304522 0.808885
vt 0.000000 0.808885
vt 0.138369 0.806540
vt 0.166153 0.806540
vt 0.000000 0.783776
vt 0.138369 0.786121
vt 0.304522 0.783776
vt 0.166153 0.786121
vt 0.854450 0.570560
vt 0.840797 0.381139
vt 0.865874 0.379331
vt 0.879527 0.568753
vt 0.674224 0.568753
vt 0.687877 0.379331
vt 0.712954 0.381139
vt 0.699301 0.570560
vt 0.936544 0.250835
vt 0.916151 0.249365
vt 0.916151 0.000000
vt 0.936544 0.001470
vt 0.984136 0.499013
vt 0.963744 0.500483
vt 0.963744 0.251118
vt 0.984136 0.249648
vn 0.889249 0.027204 0.456614
vn 0.889249 0.027204 0.456614
vn 0.889249 0.027204 0.456614
vn 0.889249 0.027204 0.456614
vn 0.450450 -0.225723 -0.863796
vn 0.450450 -0.225723 -0.863796
vn 0.450450 -0.225723 -0.863796
vn 0.450450 -0.225723 -0.863796
vn -0.889249 -0.027204 -0.456614
vn -0.889249 -0.027204 -0.456614
vn -0.889249 -0.027204 -0.456614
vn -0.889249 -0.027204 -0.456614
vn -0.450450 0.225723 0.863796
vn -0.450450 0.225723 0.863796
vn -0.450450 0.225723 0.863796
vn -0.450450 0.225723 0.863796
vn -0.118133 -0.950708 0.286703
vn -0.118133 -0.950708 0.286703
vn -0.118133 -0.950708 0.286703
vn -0.118133 -0.950708 0.286703
vn 0.118133 0.950708 -0.286702
vn 0.118133 0.950708 -0.286702
vn 0.118133 0.950708 -0.286702
vn 0.118133 0.950708 -0.286702
vn -0.118144 -0.950701 0.286724
vn -0.118144 -0.950701 0.286724
vn -0.118144 -0.950701 0.286724
vn -0.118144 -0.950701 0.286724
vn -0.118136 -0.950707 0.286707
vn -0.118136 -0.950707 0.286707
vn -0.118136 -0.950707 0.286707
vn -0.118136 -0.950707 0.286707
vn -0.118120 -0.950717 0.286678
vn -0.118120 -0.950717 0.286678
vn -0.118120 -0.950717 0.286678
vn -0.118120 -0.950717 0.286678
vn -0.118135 -0.950707 0.286707
vn -0.118135 -0.950707 0.286707
vn -0.118135 -0.950707 0.286707
vn -0.118135 -0.950707 0.286707
vn -0.453312 0.185954 0.871739
vn -0.453312 0.185954 0.871739
vn -0.453312 0.185954 0.871739
vn -0.453312 0.185954 0.871739
vn -0.889249 -0.027204 -0.456614
vn -0.889249 -0.027204 -0.456614
vn -0.889249 -0.027204 -0.456614
vn -0.889249 -0.027204 -0.456614
vn 0.453312 -0.185954 -0.871739
vn 0.453312 -0.185954 -0.871739
vn 0.453312 -0.185954 -0.871739
vn 0.453312 -0.185954 -0.871739
vn 0.889249 0.027204 0.456614
vn 0.889249 0.027204 0.456614
vn 0.889249 0.027204 0.456614
vn 0.889249 0.027204 0.456614
s off
g pCube5
usemtl lambert16SG
f 65/225/225 66/226/226 68/227/227 67/228/228
f 67/193/229 68/194/230 70/195/231 69/196/232
f 69/229/233 70/230/234 72/231/235 71/232/236
f 71/197/237 72/198/238 66/199/239 65/200/240
f 78/209/241 77/210/242 79/211/243 80/212/244
f 71/213/245 65/214/246 67/215/247 69/216/248
f 66/217/249 72/218/250 73/219/251 74/220/252
f 72/218/253 70/221/254 75/222/255 73/219/256
f 70/221/257 68/223/258 76/224/259 75/222/260
f 68/223/261 66/217/262 74/220/263 76/224/264
f 74/201/265 73/202/266 77/203/267 78/204/268
f 73/233/269 75/234/270 79/235/271 77/236/272
f 75/205/273 76/206/274 80/207/275 79/208/276
f 76/237/277 74/238/278 78/239/279 80/240/280
