# This file uses centimeters as units for non-parametric coordinates.

mtllib trowel.mtl
g default
v -2.463130 1.839998 0.727986
v -2.471767 1.717057 0.558354
v -2.449178 2.038582 0.528913
v 0.343781 0.694776 -2.525049
v 3.014688 0.643325 -2.156829
v -2.139280 1.661729 0.033177
v -0.933649 1.635206 0.033155
v -0.933647 1.636137 -0.029710
v -0.078956 0.461074 -0.631262
v -0.933642 1.182865 -0.448195
v 0.031642 1.193560 -0.023198
v -0.933656 1.064660 0.334814
v -0.078793 0.333355 -0.631262
v -0.078793 0.333355 0.631262
v 3.014455 0.772653 -2.156829
v 0.343353 0.822495 -2.525049
v 3.453015 0.246952 -0.539207
v 0.412708 0.740167 -1.893787
v -0.933647 1.182574 0.448237
v -0.078956 0.461074 0.631262
v 1.294153 0.384909 0.000000
v 0.033129 1.192888 0.015022
v 3.282398 0.610615 -1.617622
v -0.627021 0.621959 -1.893787
v 6.692031 0.409145 -1.289495
v -0.627021 0.621959 1.893787
v -0.627021 0.749677 1.893787
v 6.188134 0.603530 -1.719327
v 0.412708 0.740167 1.893787
v -0.424770 0.693141 2.525049
v 3.453015 0.246952 0.539207
v -0.425719 0.824678 2.525049
v 5.918919 0.730657 -1.719327
v 7.545263 0.020591 -0.001392
v 0.343781 0.690958 2.525049
v 3.487371 0.219009 0.000000
v 0.343353 0.822495 2.525049
v 6.422816 0.539876 -1.289495
v 6.692031 0.409509 1.289495
v 3.014688 0.639470 2.156829
v 7.334386 0.058770 -0.429832
v 3.014455 0.772653 2.156829
v 3.282398 0.610615 1.617622
v 7.065171 0.186360 -0.429832
v 7.065171 0.186503 0.429832
v 6.188134 0.600075 1.719327
v 7.334386 0.058913 0.429832
v 7.272808 0.143065 -0.002783
v 6.422816 0.540240 1.289495
v 5.918919 0.730915 1.719327
v -2.461066 1.869368 0.405668
v -2.440221 2.166081 0.278066
v -0.933656 1.064532 -0.334818
v -2.179301 1.092063 0.444555
v -2.137045 1.693542 0.558354
v -2.126344 1.845852 0.405668
v -2.480709 1.589768 0.855798
v -2.485250 1.525134 0.656385
v -2.139214 1.662667 -0.029746
v -2.119474 1.943642 0.213272
v -2.454196 1.967157 0.213272
v -2.171030 1.209795 0.448260
v -2.126344 1.845853 -0.405668
v -2.437135 2.210014 0.000000
v -2.150528 1.501619 0.656385
v -2.117107 1.977338 0.000000
v -2.500196 1.312386 0.690164
v -2.451829 2.000854 0.000000
v -2.119474 1.943642 -0.213273
v -2.440221 2.166081 -0.278066
v -2.515143 1.099638 0.656385
v -2.165475 1.288871 0.690164
v -2.454196 1.967158 -0.213273
v -2.180421 1.076123 0.656385
v -2.449178 2.038583 -0.528913
v -0.627021 0.749677 -1.893787
v -2.461066 1.869368 -0.405668
v -2.150528 1.501619 -0.656385
v -2.137045 1.693542 -0.558355
v -2.171009 1.210095 -0.448232
v -2.471767 1.717057 -0.558355
v -2.165475 1.288871 -0.690164
v -2.463130 1.839999 -0.727986
v -2.180421 1.076123 -0.656385
v -2.528626 0.907715 0.558354
v -2.193904 0.884200 0.558354
v -0.425719 0.824678 -2.525049
v -2.485250 1.525135 -0.656385
v -2.193904 0.884200 -0.558355
v -2.179310 1.091944 -0.444575
v -2.204605 0.731889 0.405668
v -2.480709 1.589769 -0.855799
v -2.500196 1.312386 -0.690164
v -0.424884 0.696960 -2.525049
v -2.539327 0.755405 0.405668
v -2.500196 1.312386 -0.899840
v -2.211475 0.634099 0.213272
v -2.179309 1.091951 -0.405668
v -2.213842 0.600404 0.000000
v -2.546197 0.657615 0.213272
v -2.211475 0.634099 -0.213272
v -2.179308 1.091969 -0.285971
v -2.548564 0.623919 0.000000
v -2.515143 1.099638 -0.656385
v -2.546197 0.657615 -0.213272
v -2.528626 0.907715 -0.558355
v -2.539327 0.755405 -0.405668
v -2.204605 0.731889 -0.405668
v -10.724357 2.619948 0.528913
v -10.738308 2.421364 0.727986
v -10.715400 2.747446 0.278066
v -10.755888 2.171134 0.855798
v -10.712313 2.791379 0.000000
v -2.500196 1.312386 0.899840
v -10.775375 1.893752 0.899840
v -10.715400 2.747447 -0.278066
v -2.519684 1.035004 0.855799
v -10.794862 1.616370 0.855799
v -10.724357 2.619948 -0.528913
v -2.537263 0.784774 0.727986
v -10.812442 1.366140 0.727986
v -10.738308 2.421364 -0.727986
v -10.826393 1.167556 0.528913
v -10.755888 2.171134 -0.855799
v -10.835350 1.040057 0.278066
v -2.551215 0.586191 0.528913
v -10.775375 1.893752 -0.899840
v -10.838437 0.996124 0.000000
v -10.794862 1.616370 -0.855799
v -10.835350 1.040057 -0.278066
v -10.812442 1.366140 -0.727986
v -10.826393 1.167556 -0.528913
v -2.560172 0.458692 0.278066
v -2.563258 0.414759 0.000000
v -2.519684 1.035004 -0.855799
v -2.560172 0.458692 -0.278066
v -2.537263 0.784774 -0.727986
v -2.551215 0.586190 -0.528913
vt 0.609838 0.518219
vt 0.634571 0.326496
vt 0.719298 0.660749
vt 0.718380 0.655507
vt 0.120781 0.594981
vt 0.124977 0.596440
vt 0.368807 0.448225
vt 0.168790 0.603778
vt 0.149424 0.531191
vt 0.415229 0.547243
vt 0.020149 0.562474
vt 0.748499 0.547065
vt 0.839003 0.546934
vt 0.069718 0.568966
vt 0.254867 0.671337
vt 0.229895 0.479998
vt 0.275829 0.485138
vt 0.274148 0.411293
vt 0.376814 0.703497
vt 0.295381 0.690698
vt 0.461680 0.448231
vt 0.081022 0.573849
vt 0.146876 0.530181
vt 0.276510 0.402936
vt 0.319646 0.937919
vt 0.384889 0.984929
vt 0.931545 0.586930
vt 0.556369 0.411326
vt 0.415206 0.706111
vt 0.280201 0.899911
vt 0.224099 0.421638
vt 0.554641 0.485179
vt 0.453598 0.703502
vt 0.535034 0.690718
vt 0.575558 0.671370
vt 0.977181 0.572737
vt 0.599384 0.426835
vt 0.600580 0.480051
vt 0.285540 0.879475
vt 0.792788 0.000000
vt 0.445525 0.984929
vt 0.510771 0.937922
vt 0.550373 0.899970
vt 0.952172 0.326002
vt 0.609942 0.480977
vt 0.317475 0.916491
vt 0.383997 0.963664
vt 0.415008 0.978550
vt 0.446419 0.963665
vt 0.512947 0.916492
vt 0.544837 0.879478
vt 0.737018 0.600922
vt 0.731103 0.609034
vt 0.609866 0.180931
vt 0.609659 0.160708
vt 0.698316 0.622791
vt 0.694159 0.636020
vt 0.610511 0.101856
vt 0.607582 0.119468
vt 0.594944 0.140980
vt 0.608580 0.140161
vt 0.594992 0.160968
vt 0.595056 0.180968
vt 0.595116 0.200974
vt 0.609935 0.201022
vt 0.595175 0.220983
vt 0.609988 0.221059
vt 0.595241 0.240993
vt 0.610049 0.241069
vt 0.595316 0.261005
vt 0.610122 0.261055
vt 0.595403 0.281019
vt 0.610222 0.281008
vt 0.595502 0.301036
vt 0.610418 0.300909
vt 0.595594 0.321054
vt 0.723337 0.735625
vt 0.693231 0.649504
vt 0.704641 0.610325
vt 0.694778 0.662709
vt 0.713562 0.600016
vt 0.698007 0.675559
vt 0.723785 0.591161
vt 0.747903 0.700036
vt 0.756248 0.705979
vt 0.703668 0.687799
vt 0.610023 0.081354
vt 0.734292 0.582689
vt 0.231056 0.426714
vt 0.155100 0.693361
vt 0.775131 0.725366
vt 0.760722 0.723244
vt 0.747569 0.719257
vt 0.790682 0.724989
vt 0.163498 0.695297
vt 0.774803 0.571174
vt 0.760013 0.571544
vt 0.746284 0.575615
vt 0.734730 0.714563
vt 0.722646 0.708057
vt 0.712319 0.698686
vt 0.609939 0.061349
vt 0.609977 0.041813
vt 0.610214 0.023164
vt 0.610545 0.340675
vt 0.611754 0.006309
vt 0.610454 0.360162
vt 0.610514 0.378941
vt 0.865891 0.689340
vt 0.845710 0.689340
vt 0.000077 0.202163
vt 0.885085 0.683104
vt 0.810188 0.671241
vt 0.901413 0.671241
vt 0.594599 0.120889
vt 0.000182 0.242602
vt 0.913275 0.654914
vt 0.594878 0.100946
vt 0.845710 0.561917
vt 0.000847 0.384103
vt 0.000973 0.404307
vt 0.901413 0.580017
vt 0.000120 0.040402
vt 0.919512 0.615538
vt 0.919512 0.635720
vt 0.792089 0.635720
vt 0.000328 0.283038
vt 0.798326 0.596344
vt 0.000510 0.323470
vt 0.000615 0.343683
vt 0.595005 0.080954
vt 0.595099 0.060940
vt 0.595222 0.040905
vt 0.595438 0.020835
vt 0.595738 0.341076
vt 0.596629 0.401309
vt 0.595909 0.361113
vt 0.596180 0.381176
vt 0.101824 0.676745
vt 0.144287 0.690025
vt 0.758646 0.704097
vt 0.765989 0.698811
vt 0.048335 0.660402
vt 0.152369 0.692735
vt 0.097395 0.675320
vt 0.056224 0.662419
vt 0.595810 0.000702
vt 0.787846 0.749947
vt 0.790677 0.608461
vt 0.000000 0.646144
vt 0.789428 0.573523
vt 0.000727 0.363895
vt 0.865891 0.561917
vt 0.885085 0.568154
vt 0.000221 0.000000
vt 0.826516 0.568154
vt 0.000170 0.020197
vt 0.810188 0.580017
vt 0.913275 0.596344
vt 0.000414 0.303255
vt 0.000076 0.060614
vt 0.792089 0.615538
vt 0.000040 0.080829
vt 0.000250 0.262821
vt 0.000014 0.101047
vt 0.798326 0.654914
vt 0.000000 0.121269
vt 0.000125 0.222383
vt 0.000003 0.141498
vt 0.826516 0.683104
vt 0.000015 0.161720
vt 0.000040 0.181942
vt 0.771962 0.748883
vt 0.755433 0.746497
vt 0.788694 0.547188
vt 0.611924 0.395458
vt 0.739142 0.742027
vt 0.772132 0.547032
vt 0.611087 0.320830
vt 0.754639 0.548710
vt 0.737468 0.553850
vt 0.721853 0.562112
vt 0.708274 0.726676
vt 0.694923 0.714716
vt 0.707981 0.572412
vt 0.683928 0.700513
vt 0.675938 0.684399
vt 0.671174 0.667225
vt 0.695272 0.584314
vt 0.669420 0.649549
vt 0.684330 0.598350
vt 0.670989 0.631670
vt 0.676159 0.614343
vt 0.656084 0.587353
vt 0.610371 0.573319
vt 0.220804 0.480902
vt 0.889870 0.061905
vt 0.923447 0.098147
vt 0.823795 0.015174
vt 0.415106 1.000000
vt 0.585055 0.672875
vt 0.762023 0.015259
vt 0.696103 0.062199
vt 0.977532 0.517644
vt 0.662525 0.098544
vt 0.606554 0.421615
vt 0.554023 0.402972
vt 0.245646 0.672798
vt 0.087349 0.483506
vt 0.373565 0.440415
vt 0.217618 0.536000
vt 0.226825 0.534940
vt 0.092775 0.490447
vt 0.185341 0.430212
vt 0.456926 0.440419
vt 0.180263 0.606691
vt 0.000015 0.483377
vn 0.021995 0.999647 0.014874
vn 0.021995 0.999647 0.014874
vn 0.188644 0.981967 0.012411
vn 0.188524 0.981990 0.012413
vn 0.324984 0.547441 -0.771164
vn 0.172913 0.566978 -0.805380
vn 0.358851 0.591866 -0.721748
vn 0.527856 0.849328 0.003120
vn 0.086680 0.675797 -0.731973
vn -0.420170 -0.907445 0.000100
vn -0.059654 -0.984919 -0.162406
vn -0.059325 -0.983099 0.173195
vn -0.408579 -0.912723 0.000102
vn 0.031828 0.999431 0.011191
vn 0.023008 -0.917696 -0.396616
vn 0.016328 -0.956609 -0.290918
vn 0.031885 0.998455 -0.045506
vn 0.031046 0.974693 0.221381
vn -0.021591 0.976516 0.214359
vn 0.023754 0.975452 0.218929
vn 0.019473 0.975397 0.219594
vn -0.327957 -0.000419 0.944693
vn 0.325991 0.552197 0.767339
vn -0.294931 -0.653876 0.696751
vn 0.175064 0.567014 0.804890
vn 0.359840 0.595288 0.718434
vn 0.088707 0.673211 0.734111
vn -0.004623 0.945695 0.325022
vn -0.013635 -0.966333 -0.256934
vn -0.014510 -0.959983 -0.279682
vn -0.022240 -0.975914 -0.217021
vn -0.917352 -0.001172 -0.398076
vn -0.995908 -0.001696 -0.090360
vn 0.023754 0.975452 -0.218929
vn -0.022073 0.976539 -0.214209
vn 0.066083 0.997814 -0.000000
vn 0.039757 0.999209 -0.000058
vn 0.004533 -0.960416 -0.278532
vn -0.002766 -0.992916 -0.118789
vn 0.031046 0.974693 -0.221381
vn 0.019424 0.975430 -0.219453
vn -0.104091 0.990596 -0.088796
vn -0.952401 -0.003488 0.304830
vn 0.007649 0.984028 -0.177848
vn 0.024208 0.997224 0.070413
vn 0.398010 0.766855 -0.503509
vn -0.038747 -0.999247 0.002098
vn -0.031513 -0.993166 0.112377
vn -0.013716 -0.966568 0.256044
vn -0.014543 -0.960140 0.279140
vn 0.003861 -0.962419 0.271541
vn 0.003630 -0.963814 0.266553
vn -0.003329 -0.993508 0.113714
vn -0.003329 -0.993508 0.113714
vn 0.018978 0.943676 0.330328
vn 0.048926 0.981648 0.184319
vn -0.002345 0.968586 -0.248668
vn -0.004675 0.945681 -0.325062
vn 0.140260 0.076976 0.987118
vn 0.106170 0.000265 0.994348
vn 0.107009 0.000267 0.994258
vn 0.140330 0.078618 0.986979
vn 0.063954 0.997953 -0.000232
vn 0.048919 0.981698 -0.184055
vn 0.432326 0.901322 0.026714
vn -0.000000 0.000000 1.000000
vn -0.000000 0.000000 1.000000
vn 0.019118 0.943758 -0.330082
vn 0.425134 0.904141 -0.042304
vn 0.025374 0.997713 -0.062644
vn 0.397799 0.752444 0.524961
vn 0.419143 0.907920 0.000459
vn 0.424841 0.904306 0.041721
vn 0.432996 0.901039 -0.025381
vn 0.005012 -0.109411 0.993984
vn -0.000673 -0.031403 0.999507
vn 0.056697 0.807028 0.587785
vn 0.041193 0.586340 0.809017
vn 0.041193 0.586340 0.809017
vn 0.056697 0.807028 0.587785
vn 0.997541 -0.070081 0.000000
vn 0.997541 -0.070083 0.000001
vn 0.997541 -0.070081 0.000000
vn 0.997541 -0.070081 0.000000
vn 0.997541 -0.070081 0.000000
vn 0.997541 -0.070081 0.000000
vn 0.997541 -0.070081 -0.000000
vn 0.997541 -0.070081 -0.000000
vn 0.997541 -0.070081 -0.000000
vn 0.997541 -0.070081 -0.000000
vn 0.997541 -0.070081 0.000000
vn 0.997541 -0.070081 0.000000
vn 0.997541 -0.070081 -0.000000
vn 0.997541 -0.070081 -0.000000
vn 0.997541 -0.070081 -0.000000
vn 0.997541 -0.070081 -0.000000
vn 0.997541 -0.070081 0.000000
vn 0.997541 -0.070081 0.000000
vn 0.997541 -0.070081 -0.000000
vn 0.997541 -0.070081 -0.000000
vn 0.997541 -0.070081 -0.000000
vn 0.997541 -0.070081 -0.000000
vn 0.066651 0.948718 0.309018
vn 0.066651 0.948718 0.309018
vn 0.021656 0.308257 0.951057
vn 0.021656 0.308257 0.951057
vn -0.327954 -0.000419 -0.944694
vn -0.294686 -0.652577 -0.698072
vn 0.014880 0.675800 0.736935
vn 0.014880 0.675800 0.736935
vn 0.070081 0.997541 0.000001
vn 0.070081 0.997541 0.000001
vn 0.000000 0.000000 1.000000
vn 0.000000 0.000000 1.000000
vn 0.066651 0.948718 -0.309017
vn 0.066651 0.948718 -0.309016
vn -0.995583 -0.001502 0.093874
vn -0.917352 -0.001174 0.398075
vn -0.021656 -0.308257 0.951057
vn -0.021656 -0.308257 0.951057
vn -0.000650 -0.030894 -0.999522
vn 0.005050 -0.108771 -0.994054
vn 0.056697 0.807028 -0.587786
vn 0.056697 0.807028 -0.587786
vn -0.041193 -0.586340 0.809017
vn -0.041193 -0.586340 0.809017
vn 0.006414 0.992222 0.124315
vn 0.997541 -0.070081 0.000001
vn 0.997541 -0.070081 0.000001
vn 0.997541 -0.070081 0.000000
vn 0.997541 -0.070081 0.000000
vn 0.997541 -0.070081 0.000000
vn 0.997541 -0.070081 0.000000
vn 0.997541 -0.070081 0.000000
vn 0.997541 -0.070081 -0.000000
vn 0.997541 -0.070081 -0.000000
vn 0.997541 -0.070082 -0.000000
vn 0.997541 -0.070082 -0.000000
vn 0.997541 -0.070081 -0.000000
vn 0.997541 -0.070081 -0.000000
vn 0.997541 -0.070081 -0.000000
vn 0.997541 -0.070081 -0.000000
vn 0.997541 -0.070082 0.000000
vn 0.997541 -0.070082 0.000000
vn 0.997541 -0.070082 0.000000
vn 0.997541 -0.070082 0.000000
vn 0.997541 -0.070082 0.000000
vn 0.997541 -0.070081 0.000000
vn 0.997541 -0.070082 -0.000000
vn 0.997541 -0.070081 0.000000
vn 0.997541 -0.070081 0.000000
vn 0.997541 -0.070080 0.000000
vn 0.997541 -0.070081 0.000000
vn 0.997541 -0.070081 0.000000
vn 0.997541 -0.070082 -0.000000
vn 0.041193 0.586340 -0.809017
vn 0.041193 0.586340 -0.809017
vn -0.056697 -0.807028 0.587785
vn -0.056697 -0.807028 0.587785
vn -0.952437 -0.003112 -0.304720
vn -0.952437 -0.003112 -0.304720
vn 0.021656 0.308258 -0.951056
vn 0.021656 0.308258 -0.951056
vn -0.022017 -0.999758 0.000194
vn -0.022015 -0.999758 0.000157
vn -0.021997 -0.999758 0.000159
vn -0.021998 -0.999758 0.000158
vn -0.066651 -0.948718 0.309017
vn -0.066651 -0.948718 0.309017
vn 0.000000 -0.000000 -1.000000
vn 0.000000 -0.000000 -1.000000
vn -0.070081 -0.997541 0.000000
vn -0.070081 -0.997541 0.000000
vn -0.000000 0.000000 -1.000000
vn -0.000000 0.000000 -1.000000
vn -0.021656 -0.308257 -0.951057
vn -0.021656 -0.308257 -0.951057
vn -0.066651 -0.948718 -0.309017
vn -0.066651 -0.948718 -0.309017
vn -0.041193 -0.586340 -0.809017
vn -0.041193 -0.586340 -0.809017
vn -0.056697 -0.807028 -0.587785
vn -0.056697 -0.807028 -0.587785
vn 0.041193 0.586340 0.809017
vn 0.041193 0.586340 0.809017
vn 0.056697 0.807028 0.587785
vn 0.056697 0.807028 0.587785
vn 0.066651 0.948718 0.309016
vn 0.066651 0.948718 0.309016
vn 0.021656 0.308257 0.951057
vn 0.021656 0.308257 0.951057
vn 0.070081 0.997541 0.000000
vn 0.070081 0.997541 0.000000
vn 0.000000 0.000000 1.000000
vn 0.000000 0.000000 1.000000
vn 0.066651 0.948719 -0.309015
vn 0.066651 0.948719 -0.309015
vn -0.021656 -0.308257 0.951057
vn -0.021656 -0.308257 0.951057
vn -0.997541 0.070081 0.000000
vn -0.997542 0.070069 -0.000001
vn -0.997542 0.070069 -0.000001
vn -0.997541 0.070080 0.000000
vn -0.997541 0.070080 0.000000
vn -0.997541 0.070083 0.000000
vn -0.997541 0.070084 0.000000
vn -0.997541 0.070084 0.000000
vn -0.997541 0.070084 0.000000
vn -0.997541 0.070081 -0.000000
vn -0.997542 0.070079 -0.000000
vn -0.997541 0.070080 -0.000000
vn -0.997541 0.070082 -0.000000
vn -0.997541 0.070081 -0.000000
vn -0.997542 0.070079 0.000001
vn -0.997541 0.070079 0.000001
vn -0.997541 0.070081 0.000001
vn -0.997541 0.070081 0.000001
vn -0.997541 0.070079 -0.000001
vn -0.997542 0.070079 -0.000001
vn 0.056697 0.807028 -0.587785
vn 0.056697 0.807028 -0.587785
vn -0.041193 -0.586340 0.809017
vn -0.041193 -0.586340 0.809017
vn 0.041193 0.586340 -0.809017
vn 0.041193 0.586340 -0.809017
vn -0.056697 -0.807028 0.587786
vn -0.056697 -0.807028 0.587785
vn 0.021656 0.308257 -0.951057
vn 0.021656 0.308257 -0.951057
vn -0.066651 -0.948718 0.309017
vn -0.066651 -0.948718 0.309017
vn -0.000000 -0.000000 -1.000000
vn 0.000000 0.000000 -1.000000
vn -0.070081 -0.997541 0.000000
vn -0.070081 -0.997541 0.000000
vn -0.021656 -0.308257 -0.951057
vn -0.021656 -0.308257 -0.951057
vn -0.066651 -0.948718 -0.309017
vn -0.066651 -0.948718 -0.309017
vn -0.041193 -0.586340 -0.809017
vn -0.041193 -0.586340 -0.809017
vn -0.056697 -0.807028 -0.587785
vn -0.056697 -0.807028 -0.587785
vn 0.014948 0.678274 -0.734657
vn 0.014948 0.678274 -0.734657
vn 0.997541 -0.070081 -0.000000
vn 0.997541 -0.070081 0.000000
vn 0.997541 -0.070081 0.000000
vn 0.997541 -0.070081 0.000000
vn 0.997541 -0.070081 -0.000000
vn 0.997541 -0.070081 -0.000000
vn 0.997541 -0.070081 -0.000000
vn 0.997541 -0.070081 -0.000000
vn 0.997541 -0.070081 0.000000
vn 0.997541 -0.070081 0.000000
vn 0.997541 -0.070081 0.000000
vn 0.997541 -0.070081 0.000000
vn 0.997541 -0.070081 0.000000
vn 0.997541 -0.070081 0.000000
vn 0.997541 -0.070081 -0.000000
vn 0.997541 -0.070081 -0.000000
vn 0.997541 -0.070081 -0.000000
vn 0.997541 -0.070081 -0.000000
s 1
g polySurface3
usemtl initialShadingGroup
f 59/139/1 6/145/2 7/5/3 8/6/4
f 9/211/5 10/8/6 11/9/7 21/214/8
f 11/9/7 10/8/6 8/6/9
s 3
f 53/11/10 13/217/11 14/209/12 12/14/13
f 15/15/14 5/208/15 4/196/16 16/16/17
f 18/17/18 76/18/19 9/7/20 17/19/21
s 1
f 14/209/22 20/213/23 12/14/24
f 12/14/24 20/213/23 19/22/25
f 11/9/7 8/6/4 7/5/3 22/23/26
f 7/5/27 19/22/25 22/23/26
f 22/23/26 19/22/25 20/213/23 21/214/8
s 3
f 23/20/28 15/15/14 16/16/17 18/17/18
f 13/12/11 24/194/29 25/203/30 41/202/31
f 14/215/32 26/207/33 20/21/34
f 20/21/34 26/207/33 27/28/35
s 1
f 22/23/26 21/214/8 11/9/7
s 3
f 17/19/21 9/7/20 21/10/36 36/29/37
f 28/205/38 25/203/30 24/194/29 5/2/15
f 24/194/29 94/195/39 4/1/16 5/2/15
f 20/21/34 27/28/35 29/32/40 31/33/41
f 32/37/42 27/28/35 26/207/33 30/206/43
f 21/10/36 20/21/34 31/33/41 36/29/37
f 29/32/40 27/28/35 32/37/42 37/38/44
f 5/208/15 15/15/14 33/39/45 28/30/46
f 34/40/47 47/199/48 14/13/12 13/12/11
f 41/202/31 34/40/47 13/12/11
f 26/27/49 39/197/50 46/198/51 40/44/52
f 35/204/53 30/36/54 26/27/49 40/44/52
f 33/39/45 15/15/14 23/20/28 38/46/55
f 38/46/55 23/20/28 17/19/21 44/47/56
f 39/197/50 26/27/49 14/13/12 47/199/48
f 29/32/40 37/38/44 42/35/57 43/34/58
f 42/35/59 37/38/60 35/45/61 40/201/62
f 44/47/56 17/19/21 36/29/37 48/48/63
f 36/29/37 31/33/41 45/49/64 48/48/63
f 28/30/46 33/39/45 38/46/55 25/25/65
f 32/37/66 30/206/67 35/45/61 37/38/60
f 31/33/41 43/34/58 49/50/68 45/49/64
f 38/46/55 44/47/56 41/26/69 25/25/65
f 43/34/58 42/35/57 50/51/70 49/50/68
f 50/51/70 42/35/59 40/201/62 46/43/71
f 34/200/72 41/26/69 44/47/56 48/48/63
f 34/200/72 48/48/63 45/49/64 47/41/73
f 45/49/64 49/50/68 39/42/74 47/41/73
f 49/50/68 50/51/70 46/43/71 39/42/74
s 1
f 12/14/24 19/22/25 54/143/75
f 54/143/75 19/22/25 62/146/76
s 11
f 51/192/77 2/193/78 55/56/79 56/57/80
s 12
f 71/58/81 67/59/82 57/60/83
f 67/59/82 58/61/84 57/60/83
f 1/62/85 57/60/83 58/61/84 2/55/86
f 3/63/87 1/62/85 2/55/86 51/54/88
f 52/64/89 3/63/87 51/54/88 61/65/90
f 64/66/91 52/64/89 61/65/90 68/67/92
f 70/68/93 64/66/91 68/67/92 73/69/94
f 75/70/95 70/68/93 73/69/94 77/71/96
f 83/72/97 75/70/95 77/71/96 81/73/98
f 92/74/99 83/72/97 81/73/98 88/75/100
f 96/76/101 92/74/99 88/75/100 93/179/102
s 11
f 61/190/103 51/192/77 56/57/80 60/78/104
f 2/193/78 58/191/105 65/79/106 55/56/79
s 1
f 13/212/107 53/216/108 9/211/5
f 53/216/108 10/8/6 9/211/5
f 19/22/25 7/5/27 6/145/109 62/146/110
s 11
f 68/188/111 61/190/103 60/78/104 66/80/112
f 58/191/105 67/189/113 72/81/114 65/79/106
f 73/187/115 68/188/111 66/80/112 69/82/116
s 3
f 9/7/20 76/18/19 24/24/117
f 13/210/118 9/7/20 24/24/117
s 11
f 67/189/113 71/185/119 74/83/120 72/81/114
s 1
f 80/140/121 10/8/6 90/144/122
f 90/144/122 10/8/6 53/216/108
s 11
f 77/186/123 73/187/115 69/82/116 63/86/124
f 71/185/119 85/182/125 86/88/126 74/83/120
s 3
f 18/17/18 16/16/17 87/89/127 76/18/19
s 13
f 98/141/128 108/91/129 89/92/130 90/85/131
f 89/92/130 84/93/132 90/85/131
f 101/151/133 102/149/134 54/52/135 99/96/136
f 97/97/137 99/96/136 54/52/135 91/98/138
f 86/88/139 91/98/138 54/52/135 74/83/140
f 74/83/140 54/52/135 62/53/141 72/81/142
f 80/84/143 90/85/131 84/93/132 82/99/144
f 82/99/144 78/100/145 80/84/143
f 59/3/146 80/84/143 78/100/145 79/101/147
f 79/101/147 63/86/148 59/3/146
f 59/3/146 63/86/148 69/82/149 66/80/150
f 6/4/151 59/3/146 66/80/150 60/78/152
f 60/78/152 56/57/153 6/4/151
f 62/53/141 6/4/151 56/57/153 55/56/154
f 62/53/141 55/56/154 65/79/155 72/81/142
s 11
f 81/184/156 77/186/123 63/86/124 79/101/157
f 85/182/125 95/181/158 91/98/159 86/88/126
s 3
f 94/31/160 24/24/117 76/18/19 87/89/161
s 11
f 88/183/162 81/184/156 79/101/157 78/100/163
s 3
f 90/144/164 53/216/10 98/90/165
f 12/14/13 54/143/166 102/150/167 53/11/10
f 98/90/165 53/216/10 102/95/167
s 11
f 95/181/158 100/180/168 97/97/169 91/98/159
f 93/77/170 88/183/162 78/100/163 82/99/171
f 100/180/168 103/178/172 99/96/173 97/97/169
s 3
f 16/16/17 4/196/16 94/31/174 87/89/175
s 11
f 104/177/176 93/77/170 82/99/171 84/93/177
f 103/178/172 105/175/178 101/151/179 99/96/173
f 106/174/180 104/177/176 84/93/177 89/92/181
f 105/148/178 107/173/182 108/91/183 101/94/179
f 107/173/182 106/174/180 89/92/181 108/91/183
s 13
f 102/142/134 101/94/133 108/91/129 98/141/128
s 15
f 110/171/184 1/62/185 3/63/186 109/172/187
f 109/172/187 3/63/186 52/64/188 111/111/189
f 112/169/190 57/60/191 1/62/185 110/171/184
f 111/111/189 52/64/188 64/66/192 113/168/193
f 115/167/194 114/115/195 57/60/191 112/169/190
f 113/168/193 64/66/192 70/68/196 116/116/197
f 118/165/198 117/118/199 114/115/195 115/167/194
s 16
f 131/119/200 132/153/201 130/154/202 128/122/203
f 131/119/200 128/122/203 125/159/204 123/124/205
f 131/119/200 123/124/205 121/125/206 118/117/207
f 131/119/200 118/117/207 115/114/208 112/112/209
f 131/119/200 112/112/209 110/109/210 109/110/211
f 131/119/200 109/110/211 111/170/212 113/113/213
f 131/119/200 113/113/213 116/166/214 119/126/215
f 131/119/200 119/126/215 122/162/216 124/128/217
f 131/119/200 124/128/217 127/158/218 129/156/219
s 15
f 116/116/197 70/68/196 75/70/220 119/164/221
f 121/163/222 120/131/223 117/118/199 118/165/198
f 119/164/221 75/70/220 83/72/224 122/127/225
f 123/161/226 126/132/227 120/131/223 121/163/222
f 122/127/225 83/72/224 92/74/228 124/160/229
f 125/123/230 133/133/231 126/132/227 123/161/226
f 124/160/229 92/74/228 96/76/232 127/129/233
f 128/157/234 134/134/235 133/133/231 125/123/230
f 127/129/233 96/76/232 135/135/236 129/130/237
f 130/155/238 136/147/239 134/134/235 128/157/234
f 129/130/237 135/135/236 137/137/240 131/152/241
f 132/120/242 138/138/243 136/136/239 130/121/238
f 131/152/241 137/137/240 138/138/243 132/120/242
s 1
f 59/139/244 8/6/9 10/8/6 80/140/245
s 12
f 71/58/81 57/60/83 114/115/246 117/118/247
f 71/58/81 117/118/247 120/131/248 85/87/249
f 85/87/249 120/131/248 126/132/250 95/102/251
f 95/102/251 126/132/250 133/133/252 100/103/253
f 100/103/253 133/133/252 134/134/254 103/104/255
f 103/104/255 134/134/254 136/147/256 105/106/257
f 105/176/257 136/136/256 138/138/258 107/108/259
f 107/108/259 138/138/258 137/137/260 106/107/261
f 106/107/261 137/137/260 135/135/262 104/105/263
f 104/105/263 135/135/262 96/76/101 93/179/102
s 3
f 23/20/28 18/17/18 17/19/21
f 29/32/40 43/34/58 31/33/41
